<svg width="40" height="40" viewBox="0 0 40 40" fill="none" xmlns="http://www.w3.org/2000/svg">
<rect width="40" height="40" rx="6" fill="#3B3B3D"/>
<rect x="0.5" y="0.5" width="39" height="39" rx="5.5" stroke="white" stroke-opacity="0.4"/>
<path d="M16.25 25C16.9404 25 17.5 25.5596 17.5 26.25C17.5 26.9404 16.9404 27.5 16.25 27.5C15.5596 27.5 15 26.9404 15 26.25C15 25.5596 15.5596 25 16.25 25Z" fill="white"/>
<path d="M23.75 25.0001C24.4404 25.0001 25 25.5597 25 26.2501C25 26.9404 24.4404 27.5001 23.75 27.5001C23.0596 27.5001 22.5 26.9404 22.5 26.2501C22.5 25.5597 23.0596 25.0001 23.75 25.0001Z" fill="white"/>
<path d="M10.8698 12.0013C10.5944 11.9813 10.3549 12.1883 10.3348 12.4637C10.3148 12.7391 10.5218 12.9786 10.7972 12.9987L10.8698 12.0013ZM13.8217 13.6025L14.2345 13.3204L14.2345 13.3204L13.8217 13.6025ZM14.9066 22.1551L14.5438 22.4992L14.5438 22.4992L14.9066 22.1551ZM27.215 18.2356L27.7047 18.3366L27.7053 18.3335L27.215 18.2356ZM26.7985 20.2562L27.2882 20.3572L26.7985 20.2562ZM27.2789 15.5809L26.8826 15.8858V15.8858L27.2789 15.5809ZM25.9448 22.542L25.629 22.1544L25.9448 22.542ZM11.352 12.5378L11.3157 13.0364L11.352 12.5378ZM14.6319 18.1333V15.8653H13.6319V18.1333H14.6319ZM11.3883 12.0391L10.8698 12.0013L10.7972 12.9987L11.3157 13.0364L11.3883 12.0391ZM19.1147 23.4167H23.5338V22.4167H19.1147V23.4167ZM14.6319 15.8653C14.6319 15.2733 14.6326 14.7894 14.5902 14.3981C14.5466 13.9955 14.4535 13.6409 14.2345 13.3204L13.4089 13.8846C13.5001 14.018 13.562 14.1918 13.596 14.5057C13.6312 14.8308 13.6319 15.2514 13.6319 15.8653H14.6319ZM12.2177 13.2253C12.9947 13.5068 13.2547 13.6589 13.4089 13.8846L14.2345 13.3204C13.8728 12.7911 13.296 12.5524 12.5583 12.2851L12.2177 13.2253ZM13.6319 18.1333C13.6319 19.3468 13.6436 20.2081 13.7557 20.8623C13.8739 21.5526 14.1074 22.0389 14.5438 22.4992L15.2694 21.8111C14.9838 21.5099 14.8299 21.2109 14.7413 20.6935C14.6465 20.14 14.6319 19.3712 14.6319 18.1333H13.6319ZM19.1147 22.4167C17.9378 22.4167 17.1081 22.4155 16.4801 22.3264C15.8693 22.2398 15.5233 22.0789 15.2694 21.8111L14.5438 22.4992C15.0119 22.9929 15.6079 23.2128 16.3397 23.3165C17.0542 23.4178 17.9676 23.4167 19.1147 23.4167V22.4167ZM14.1319 15.6H24.2409V14.6H14.1319V15.6ZM26.7253 18.1347L26.3088 20.1553L27.2882 20.3572L27.7047 18.3366L26.7253 18.1347ZM24.2409 15.6C24.9522 15.6 25.5881 15.6007 26.0922 15.657C26.343 15.6851 26.5377 15.7247 26.6798 15.7746C26.8259 15.8259 26.8728 15.873 26.8826 15.8858L27.6752 15.276C27.5001 15.0484 27.2502 14.9151 27.0114 14.8312C26.7685 14.7458 26.4902 14.6953 26.2032 14.6632C25.6318 14.5993 24.9336 14.6 24.2409 14.6V15.6ZM27.7053 18.3335C27.847 17.6233 27.9645 17.0403 27.9932 16.5759C28.0225 16.1007 27.9668 15.655 27.6752 15.276L26.8826 15.8858C26.961 15.9877 27.0179 16.1448 26.9951 16.5143C26.9716 16.8948 26.8722 17.3987 26.7246 18.1378L27.7053 18.3335ZM23.5338 23.4167C24.1717 23.4167 24.6954 23.4175 25.1155 23.3661C25.5492 23.3131 25.9304 23.1988 26.2607 22.9296L25.629 22.1544C25.4995 22.2599 25.3257 22.3329 24.994 22.3735C24.6487 22.4158 24.1967 22.4167 23.5338 22.4167V23.4167ZM26.3088 20.1553C26.175 20.8046 26.0829 21.2471 25.9718 21.5767C25.8651 21.8934 25.7584 22.0489 25.629 22.1544L26.2607 22.9296C26.591 22.6604 26.7799 22.3101 26.9194 21.8961C27.0546 21.495 27.1594 20.9819 27.2882 20.3572L26.3088 20.1553ZM11.3157 13.0364C11.5995 13.0571 11.6958 13.0652 11.7892 13.0851L11.9978 12.1071C11.822 12.0696 11.647 12.0579 11.3883 12.0391L11.3157 13.0364ZM12.5583 12.2851C12.3289 12.202 12.1733 12.1445 11.9978 12.1071L11.7892 13.0851C11.883 13.1051 11.9673 13.1346 12.2177 13.2253L12.5583 12.2851Z" fill="white"/>
</svg>
