<svg width="17" height="10" viewBox="0 0 17 10" fill="none" xmlns="http://www.w3.org/2000/svg">
<path fill-rule="evenodd" clip-rule="evenodd" d="M0.151336 0.258065C0.275248 0.124105 0.461905 0.0342118 0.670283 0.00814327C0.878661 -0.0179253 1.09171 0.0219634 1.26261 0.119043L16.6527 8.85996C16.7406 8.90702 16.8156 8.96743 16.8732 9.03762C16.9309 9.10781 16.97 9.18634 16.9882 9.26859C17.0065 9.35083 17.0035 9.43511 16.9795 9.51644C16.9555 9.59776 16.9109 9.67449 16.8485 9.74208C16.786 9.80967 16.7069 9.86675 16.6158 9.90994C16.5247 9.95313 16.4235 9.98156 16.3182 9.99354C16.2129 10.0055 16.1055 10.0008 16.0026 9.97969C15.8996 9.95857 15.8031 9.92147 15.7187 9.87058L13.3327 8.51532C12.0421 9.31532 10.3927 9.98962 8.49065 9.98962C6.38805 9.98962 4.59536 9.16382 3.25483 8.25975C1.90687 7.35236 0.933578 6.30761 0.455954 5.74403C0.267438 5.5226 0.166825 5.26232 0.166825 4.99606C0.166825 4.7298 0.267438 4.46952 0.455954 4.24809C0.830624 3.80438 1.51203 3.06598 2.43863 2.32925L0.328588 1.12966C0.157789 1.03247 0.0431773 0.886074 0.0099403 0.722639C-0.0232967 0.559203 0.0275609 0.392104 0.151336 0.258065ZM3.74519 3.07014C3.01094 3.63852 2.35297 4.26449 1.78163 4.9382C1.76669 4.95478 1.75855 4.97452 1.75828 4.99481C1.75828 5.01229 1.76464 5.03227 1.78163 5.05142C2.21892 5.56838 3.09987 6.50824 4.29287 7.31324C5.49224 8.12323 6.92723 8.74092 8.49065 8.74092C9.75901 8.74092 10.9425 8.33468 11.9826 7.74945L9.61891 6.40585C9.26054 6.58239 8.84308 6.6709 8.42011 6.66C7.99715 6.64911 7.58799 6.5393 7.24517 6.34469C6.90235 6.15007 6.64152 5.87953 6.49617 5.56781C6.35082 5.25608 6.32758 4.91739 6.42944 4.59523L3.74413 3.07014H3.74519ZM8.49065 1.2487C7.94298 1.2487 7.41122 1.32363 6.89963 1.45765C6.79973 1.48584 6.69364 1.49807 6.58762 1.49362C6.4816 1.48917 6.37778 1.46813 6.28229 1.43174C6.18679 1.39534 6.10154 1.34434 6.03155 1.28171C5.96156 1.21909 5.90826 1.14612 5.87477 1.0671C5.84128 0.988075 5.82828 0.904596 5.83654 0.821574C5.8448 0.738552 5.87416 0.657666 5.92288 0.583675C5.97159 0.509685 6.03869 0.444086 6.12022 0.39074C6.20175 0.337394 6.29606 0.297379 6.3976 0.27305C7.072 0.0942595 7.77878 0.00205613 8.49065 0C10.5933 0 12.3859 0.825809 13.7265 1.72987C15.0744 2.63809 16.0477 3.68201 16.5254 4.24642C16.714 4.46798 16.8146 4.72841 16.8146 4.99481C16.8146 5.26122 16.714 5.52164 16.5254 5.7432C16.4086 5.88139 16.2621 6.04705 16.0902 6.23186C16.0284 6.298 15.9505 6.35394 15.8612 6.39649C15.7718 6.43904 15.6726 6.46737 15.5693 6.47985C15.4659 6.49234 15.3605 6.48874 15.2589 6.46925C15.1573 6.44977 15.0616 6.41479 14.9773 6.3663C14.893 6.31782 14.8217 6.25678 14.7674 6.18668C14.7132 6.11658 14.677 6.03878 14.6611 5.95773C14.6452 5.87668 14.6498 5.79396 14.6746 5.7143C14.6995 5.63464 14.7441 5.5596 14.8059 5.49346C14.963 5.32613 15.0946 5.17546 15.1997 5.05225C15.2147 5.03556 15.2227 5.01564 15.2227 4.99523C15.2227 4.97481 15.2147 4.9549 15.1997 4.9382C14.7624 4.42124 13.8814 3.48138 12.6884 2.67639C11.4891 1.86639 10.0541 1.2487 8.49065 1.2487Z" fill="white" fill-opacity="0.4"/>
</svg>
